<?xml version="1.0" encoding="UTF-8" standalone="no"?>
<svg
   xmlns:dc="http://purl.org/dc/elements/1.1/"
   xmlns:cc="http://creativecommons.org/ns#"
   xmlns:rdf="http://www.w3.org/1999/02/22-rdf-syntax-ns#"
   xmlns:svg="http://www.w3.org/2000/svg"
   xmlns="http://www.w3.org/2000/svg"
   xmlns:sodipodi="http://sodipodi.sourceforge.net/DTD/sodipodi-0.dtd"
   xmlns:inkscape="http://www.inkscape.org/namespaces/inkscape"
   version="1.1"
   id="svg2"
   xml:space="preserve"
   width="487.46667"
   height="65.360001"
   viewBox="0 0 487.46667 65.360001"
   sodipodi:docname="FM_Logo_vettoriale.eps"><metadata
     id="metadata8"><rdf:RDF><cc:Work
         rdf:about=""><dc:format>image/svg+xml</dc:format><dc:type
           rdf:resource="http://purl.org/dc/dcmitype/StillImage" /></cc:Work></rdf:RDF></metadata><defs
     id="defs6" /><sodipodi:namedview
     pagecolor="#ffffff"
     bordercolor="#666666"
     borderopacity="1"
     objecttolerance="10"
     gridtolerance="10"
     guidetolerance="10"
     inkscape:pageopacity="0"
     inkscape:pageshadow="2"
     inkscape:window-width="640"
     inkscape:window-height="480"
     id="namedview4" /><g
     id="g10"
     inkscape:groupmode="layer"
     inkscape:label="ink_ext_XXXXXX"
     transform="matrix(1.3333333,0,0,-1.3333333,0,65.36)"><g
       id="g12"
       transform="scale(0.1)"><path
         d="m 2488.54,96.2109 h 45.7 V 238.105 c 0,27.95 5.82,49.266 17.47,63.961 11.64,14.692 27.49,22.036 47.57,22.036 18.27,0 32.24,-5.02 41.91,-15.047 5.38,-5.735 9.23,-13.801 11.56,-24.188 2.33,-10.394 3.5,-23.644 3.5,-39.773 V 96.2109 h 45.68 V 238.105 c 0,27.95 5.82,49.266 17.47,63.961 11.64,14.692 27.5,22.036 47.57,22.036 18.27,0 32.25,-5.02 41.93,-15.047 5.37,-5.735 9.21,-13.801 11.55,-24.188 2.32,-10.394 3.5,-23.644 3.5,-39.773 V 96.2109 h 45.68 V 257.992 c 0,18.629 -1.8,34.668 -5.37,48.106 -3.6,13.437 -9.5,24.461 -17.75,33.054 -7.16,7.161 -15.94,13.075 -26.33,17.743 -10.4,4.648 -22.57,6.984 -36.55,6.984 -21.86,0 -40.22,-3.859 -55.1,-11.555 -14.87,-7.715 -27.32,-19.082 -37.35,-34.129 -6.09,13.614 -14.87,24.629 -26.34,33.051 -11.46,8.418 -27.77,12.633 -48.9,12.633 -21.87,0 -39.15,-3.859 -51.87,-11.555 -12.72,-7.715 -22.67,-17.469 -29.83,-29.297 v 36.551 h -45.7 z m 576.46,0 c 13.44,4.2971 25.18,10.1171 35.2,17.4611 10.03,7.344 18.36,15.945 25,25.801 6.63,9.851 11.56,20.156 14.78,30.91 l -46.76,5.906 c -5.73,-14.336 -14.25,-25.625 -25.52,-33.855 -11.29,-8.243 -27.51,-12.364 -48.65,-12.364 -11.12,0 -21.41,1.883 -30.91,5.645 -9.5,3.758 -17.74,9.305 -24.72,16.656 -6.99,7.348 -12.46,16.125 -16.4,26.34 -3.94,10.215 -5.91,21.769 -5.91,34.668 h 203.18 c 1.42,21.133 -0.28,40.937 -5.11,59.394 -4.83,18.45 -12.64,34.399 -23.39,47.836 -10.74,13.438 -24.1,24 -40.04,31.715 -15.95,7.696 -34.31,11.555 -55.09,11.555 -18.64,0 -35.84,-3.32 -51.6,-9.941 -15.77,-6.637 -29.29,-15.954 -40.57,-27.95 -11.29,-12.011 -20.08,-26.437 -26.35,-43.273 -6.27,-16.848 -9.41,-35.469 -9.41,-55.899 0,-19.343 2.6,-37.351 7.8,-54.011 5.19,-16.672 13.07,-31.184 23.65,-43.547 10.57,-12.352 23.83,-22.031 39.77,-29.024 15.94,-6.9801 34.67,-10.4762 56.18,-10.4762 16.47,0 31.43,2.1485 44.87,6.4531 M 3052.91,318.73 c 9.31,-4.3 17.11,-9.945 23.38,-16.933 6.27,-6.981 11.02,-14.871 14.25,-23.649 3.22,-8.781 5.01,-17.652 5.37,-26.605 h -154.26 c 1.07,23.285 8.77,41.387 23.12,54.285 14.32,12.902 32.95,19.348 55.89,19.348 12.18,0 22.92,-2.149 32.25,-6.446 m 304.75,-199.414 c 0,-18.269 -1.26,-31.4332 -3.76,-39.4996 -2.51,-8.0703 -6.27,-14.7851 -11.28,-20.1562 -12.2,-13.2539 -30.47,-19.8946 -54.83,-19.8946 -10.4,0 -19.26,1.086 -26.61,3.2305 -7.35,2.1523 -13.44,5.1094 -18.27,8.8711 -4.84,3.7578 -8.69,8.2422 -11.56,13.4375 -2.87,5.1914 -5.02,10.8398 -6.45,16.9219 l -48.37,-1.6094 C 3180.83,54.1133 3192.66,34.043 3212,20.4219 3231.35,6.80859 3256.44,0 3287.25,0 c 20.06,0 38.07,3.04688 54.02,9.13281 15.94,6.09379 28.93,14.87109 38.96,26.33599 3.58,4.2968 6.9,9.0546 9.95,14.25 3.04,5.1914 5.46,11.375 7.25,18.5429 1.79,7.168 3.23,15.7735 4.31,25.793 1.07,10.0273 1.61,21.8553 1.61,35.4763 v 230.047 h -44.61 l -1.08,-34.402 c -7.17,11.465 -17.11,20.781 -29.83,27.953 -12.72,7.164 -28.76,10.75 -48.1,10.75 -16.85,0 -32.25,-2.961 -46.22,-8.867 -13.98,-5.914 -26.08,-14.516 -36.28,-25.801 -10.22,-11.289 -18.2,-24.992 -23.93,-41.113 -5.73,-16.129 -8.6,-34.59 -8.6,-55.371 0,-21.145 2.77,-39.864 8.34,-56.164 5.54,-16.309 13.16,-30.098 22.84,-41.387 9.67,-11.289 21.23,-19.883 34.67,-25.801 13.43,-5.906 28.02,-8.867 43.81,-8.867 21.84,0 39.14,3.937 51.86,11.828 12.72,7.867 23.19,18.086 31.44,30.633 z m -126.31,44.883 c -12.19,15.938 -18.27,38.781 -18.27,68.528 0,29.382 6.18,51.957 18.54,67.726 12.36,15.762 30.55,23.649 54.55,23.649 10.39,0 20.07,-1.704 29.03,-5.102 8.95,-3.414 16.75,-8.695 23.38,-15.855 6.62,-7.172 11.82,-16.582 15.59,-28.223 3.76,-11.649 5.64,-25.715 5.64,-42.195 0,-16.485 -1.98,-30.547 -5.91,-42.192 -3.95,-11.648 -9.23,-21.226 -15.85,-28.758 -6.63,-7.519 -14.44,-12.988 -23.39,-16.386 -8.96,-3.407 -18.46,-5.106 -28.49,-5.106 -24.36,0 -42.64,7.969 -54.82,23.914 m 250.48,114.219 c 1.41,14.687 7.15,26.516 17.19,35.473 10.02,8.953 25.43,13.437 46.22,13.437 8.61,0 16.66,-0.805 24.19,-2.418 7.52,-1.609 13.98,-4.48 19.35,-8.601 5.37,-4.121 9.58,-9.672 12.64,-16.661 3.03,-6.988 4.57,-15.859 4.57,-26.605 v -9.676 l -51.07,-5.375 c -17.2,-1.797 -33.51,-4.301 -48.91,-7.523 -15.41,-3.223 -29.39,-8.43 -41.93,-15.586 -10.4,-6.102 -18.9,-13.973 -25.53,-23.653 -6.64,-9.675 -9.95,-21.691 -9.95,-36.015 0,-11.465 1.98,-22.305 5.92,-32.52 3.94,-10.203 9.76,-19.257 17.47,-27.136 7.7,-7.895 17.37,-14.161 29.03,-18.8129 11.64,-4.6563 25.16,-6.9883 40.58,-6.9883 23.64,0 42.27,3.9414 55.89,11.8242 13.61,7.883 24.54,18.449 32.79,31.707 l 1.61,-37.0781 h 44.08 c -0.73,8.5941 -1.44,16.8361 -2.15,24.7191 -0.72,7.879 -1.35,15.761 -1.89,23.648 -0.53,7.883 -0.9,16.125 -1.07,24.731 -0.19,8.601 -0.26,18.086 -0.26,28.484 l 1.07,66.652 c 0.35,35.473 -7.62,61.004 -23.93,76.59 -16.3,15.586 -43.08,23.379 -80.35,23.379 -14.69,0 -28.57,-1.879 -41.65,-5.644 -13.08,-3.758 -24.55,-9.231 -34.4,-16.391 -9.86,-7.176 -17.83,-15.953 -23.92,-26.34 -6.09,-10.394 -9.5,-22.394 -10.21,-36.008 z m 120.12,-106.426 c -4.84,-10.39 -11.02,-18.719 -18.54,-24.988 -7.52,-6.281 -15.96,-10.754 -25.27,-13.438 -9.32,-2.687 -18.63,-4.035 -27.94,-4.035 -15.78,0 -28.58,3.848 -38.43,11.555 -9.87,7.703 -14.79,18.543 -14.79,32.519 0,15.047 6.46,25.973 19.35,32.793 12.9,6.797 32.25,11.454 58.05,13.973 l 54.83,5.371 v -15.586 c 0,-15.047 -2.42,-27.773 -7.26,-38.164"
         style="fill:#18ae50;fill-opacity:1;fill-rule:nonzero;stroke:none"
         id="path14" /><path
         d="m 680.477,359.578 h -37.09 v -37.625 h 37.09 V 96.2109 H 726.16 V 321.953 h 50.528 v 37.625 H 726.16 v 19.887 c 0,13.973 1.699,23.289 5.11,27.949 3.398,4.656 11.015,6.992 22.839,6.992 h 22.579 v 38.696 h -23.653 c -15.047,0 -27.324,-1.262 -36.816,-3.766 -9.5,-2.508 -16.934,-6.629 -22.301,-12.363 -5.383,-5.731 -8.969,-13.348 -10.754,-22.84 -1.797,-9.5 -2.687,-21.231 -2.687,-35.207 z M 809.461,96.2109 h 45.695 V 359.578 h -45.695 z m 0,302.0661 h 45.695 v 54.825 h -45.695 z m 313.899,54.825 h -45.69 V 325.176 c -7.17,11.465 -17.47,20.781 -30.9,27.953 -13.44,7.164 -29.84,10.75 -49.184,10.75 -16.856,0 -32.254,-3.141 -46.219,-9.406 -13.984,-6.274 -26.074,-15.321 -36.289,-27.145 -10.215,-11.824 -18.195,-26.16 -23.918,-43 -5.742,-16.844 -8.594,-35.836 -8.594,-56.973 0,-21.503 2.766,-40.761 8.332,-57.785 5.547,-17.019 13.165,-31.433 22.84,-43.261 9.68,-11.825 21.231,-20.879 34.668,-27.1488 13.438,-6.2579 28.028,-9.4024 43.801,-9.4024 22.213,0 39.953,3.9414 53.213,11.8242 13.25,7.883 24,18.098 32.25,30.637 l 1.62,-36.0081 h 44.07 z M 949.211,155.332 c -12.191,17.199 -18.273,41.203 -18.273,72.023 0,30.454 6.179,54.192 18.542,71.219 12.364,17.012 30.54,25.528 54.55,25.528 10.39,0 20.24,-1.879 29.56,-5.645 9.32,-3.758 17.38,-9.496 24.19,-17.195 6.8,-7.707 12.18,-17.653 16.13,-29.832 3.93,-12.192 5.91,-26.875 5.91,-44.075 0,-17.199 -2.07,-31.894 -6.19,-44.074 -4.11,-12.187 -9.67,-22.304 -16.65,-30.371 -6.99,-8.055 -15.06,-13.972 -24.19,-17.734 -9.14,-3.762 -18.73,-5.645 -28.76,-5.645 -24.374,0 -42.643,8.606 -54.819,25.801 M 1328.14,96.2109 h 45.68 V 359.578 h -45.68 V 216.066 c 0,-27.949 -5.84,-49.269 -17.47,-63.957 -11.66,-14.699 -27.87,-22.039 -48.65,-22.039 -11.82,0 -21.95,1.883 -30.36,5.645 -8.43,3.758 -14.79,10.113 -19.08,19.082 -2.87,6.082 -5.02,13.523 -6.45,22.305 -1.44,8.765 -2.16,19.968 -2.16,33.593 v 148.883 h -45.68 V 196.184 c 0,-16.485 1.43,-31.008 4.3,-43.536 2.86,-12.55 7.53,-23.117 13.97,-31.718 7.16,-9.317 16.4,-16.75 27.69,-22.3089 11.29,-5.5469 24.99,-8.3281 41.11,-8.3281 22.58,0 40.22,4.1328 52.95,12.363 12.71,8.242 22.66,18.633 29.83,31.172 z m 141.35,257.1871 c -15.77,-6.988 -29.12,-16.578 -40.04,-28.757 -10.93,-12.188 -19.26,-26.606 -25,-43.262 -5.73,-16.668 -8.59,-34.676 -8.59,-54.024 0,-19.718 2.77,-37.988 8.33,-54.824 5.55,-16.847 13.61,-31.359 24.19,-43.539 10.56,-12.183 23.46,-21.765 38.69,-28.758 15.23,-6.9801 32.7,-10.4762 52.41,-10.4762 15.76,0 30.36,2.332 43.8,6.9883 13.44,4.6519 25.26,11.0199 35.48,19.0739 10.21,8.067 18.62,17.383 25.26,27.961 6.62,10.555 11.02,21.582 13.17,33.047 l -46.76,5.914 c -3.23,-14.695 -10.85,-27.144 -22.84,-37.351 -12.01,-10.215 -27.69,-15.321 -47.03,-15.321 -10.4,0 -20.16,2.059 -29.3,6.18 -9.13,4.121 -17.2,10.215 -24.19,18.273 -6.98,8.067 -12.55,18.18 -16.66,30.372 -4.12,12.175 -6.18,26.511 -6.18,42.996 0,16.125 1.97,30.187 5.92,42.199 3.93,11.996 9.4,21.941 16.38,29.828 6.99,7.875 15.14,13.793 24.47,17.738 9.3,3.938 19.16,5.91 29.56,5.91 17.91,0 32.87,-4.753 44.88,-14.238 11.99,-9.504 19.61,-22.492 22.84,-38.976 l 46.22,6.457 c -1.43,10.027 -4.93,20.23 -10.48,30.632 -5.55,10.387 -13.08,19.797 -22.58,28.219 -9.5,8.414 -20.69,15.231 -33.59,20.426 -12.9,5.195 -27.6,7.793 -44.07,7.793 -20.43,0 -38.53,-3.496 -54.29,-10.481 M 1659.23,96.2109 h 45.68 V 359.578 h -45.68 z m 0,302.0661 h 45.68 v 54.825 h -45.68 z m 124.15,-119.859 c 1.42,14.687 7.16,26.516 17.2,35.473 10.03,8.953 25.44,13.437 46.23,13.437 8.59,0 16.65,-0.805 24.18,-2.418 7.53,-1.609 13.97,-4.48 19.35,-8.601 5.37,-4.121 9.58,-9.672 12.63,-16.661 3.05,-6.988 4.57,-15.859 4.57,-26.605 v -9.676 l -51.07,-5.375 c -17.19,-1.797 -33.5,-4.301 -48.91,-7.523 -15.41,-3.223 -29.39,-8.43 -41.93,-15.586 -10.39,-6.102 -18.9,-13.973 -25.52,-23.653 -6.63,-9.675 -9.94,-21.679 -9.94,-36.015 0,-11.465 1.96,-22.305 5.9,-32.52 3.94,-10.203 9.77,-19.257 17.47,-27.136 7.71,-7.895 17.38,-14.161 29.03,-18.8129 11.64,-4.6563 25.16,-6.9883 40.57,-6.9883 23.67,0 42.29,3.9414 55.91,11.8242 13.62,7.883 24.54,18.449 32.79,31.707 l 1.61,-37.0781 h 44.08 c -0.72,8.5941 -1.45,16.8361 -2.16,24.7191 -0.72,7.879 -1.34,15.761 -1.87,23.648 -0.55,7.883 -0.91,16.125 -1.09,24.731 -0.17,8.601 -0.26,18.093 -0.26,28.484 l 1.07,66.652 c 0.36,35.473 -7.61,61.004 -23.91,76.59 -16.31,15.586 -43.1,23.379 -80.36,23.379 -14.69,0 -28.58,-1.879 -41.66,-5.644 -13.08,-3.758 -24.55,-9.231 -34.39,-16.391 -9.86,-7.176 -17.83,-15.953 -23.93,-26.34 -6.09,-10.394 -9.49,-22.394 -10.21,-36.008 z m 120.13,-106.426 c -4.85,-10.39 -11.02,-18.719 -18.55,-24.988 -7.52,-6.281 -15.95,-10.754 -25.26,-13.438 -9.32,-2.687 -18.64,-4.035 -27.95,-4.035 -15.76,0 -28.59,3.848 -38.43,11.555 -9.86,7.703 -14.78,18.543 -14.78,32.519 0,15.047 6.45,25.973 19.35,32.793 12.9,6.797 32.25,11.454 58.05,13.973 l 54.82,5.371 v -15.586 c 0,-15.047 -2.42,-27.773 -7.25,-38.164 m 222.25,188.664 c -2.52,0.352 -4.84,0.535 -6.99,0.535 h -6.45 c -17.56,-0.722 -32.88,-5.203 -45.95,-13.437 -13.09,-8.242 -23.04,-19.887 -29.84,-34.938 v 46.762 h -44.61 V 96.2109 h 45.69 V 231.652 c 0,29.739 5.18,50.883 15.58,63.426 10.39,12.539 26.16,18.813 47.31,18.813 7.16,0 15.58,-0.539 25.26,-1.61 z m 27.4,-264.4451 h 45.69 V 359.578 h -45.69 z m 0,302.0661 h 45.69 v 54.825 h -45.69 z m 124.15,-119.859 c 1.44,14.687 7.17,26.516 17.2,35.473 10.03,8.953 25.45,13.437 46.23,13.437 8.6,0 16.66,-0.805 24.19,-2.418 7.52,-1.609 13.98,-4.48 19.35,-8.601 5.37,-4.121 9.59,-9.672 12.62,-16.661 3.05,-6.988 4.57,-15.859 4.57,-26.605 v -9.676 l -51.06,-5.375 c -17.2,-1.797 -33.51,-4.301 -48.91,-7.523 -15.41,-3.223 -29.38,-8.43 -41.92,-15.586 -10.39,-6.102 -18.91,-13.973 -25.54,-23.653 -6.63,-9.675 -9.94,-21.679 -9.94,-36.015 0,-11.465 1.97,-22.305 5.92,-32.52 3.93,-10.203 9.75,-19.257 17.46,-27.136 7.71,-7.895 17.38,-14.161 29.03,-18.8129 11.64,-4.6563 25.17,-6.9883 40.58,-6.9883 23.65,0 42.27,3.9414 55.9,11.8242 13.61,7.883 24.54,18.449 32.79,31.707 l 1.6,-37.0781 h 44.08 c -0.72,8.5941 -1.43,16.8361 -2.14,24.7191 -0.73,7.879 -1.35,15.761 -1.89,23.648 -0.54,7.883 -0.9,16.125 -1.07,24.731 -0.19,8.601 -0.27,18.093 -0.27,28.484 l 1.07,66.652 c 0.36,35.473 -7.61,61.004 -23.92,76.59 -16.31,15.586 -43.08,23.379 -80.35,23.379 -14.7,0 -28.58,-1.879 -41.66,-5.644 -13.08,-3.758 -24.54,-9.231 -34.39,-16.391 -9.87,-7.176 -17.83,-15.953 -23.92,-26.34 -6.1,-10.394 -9.5,-22.394 -10.22,-36.008 z m 120.13,-106.426 c -4.83,-10.39 -11.01,-18.719 -18.53,-24.988 -7.53,-6.281 -15.95,-10.754 -25.27,-13.438 -9.32,-2.687 -18.63,-4.035 -27.96,-4.035 -15.76,0 -28.57,3.848 -38.42,11.555 -9.86,7.703 -14.78,18.543 -14.78,32.519 0,15.047 6.45,25.973 19.35,32.793 12.9,6.797 32.25,11.454 58.04,13.973 l 54.83,5.371 v -15.586 c 0,-15.047 -2.42,-27.773 -7.26,-38.164"
         style="fill:#231f20;fill-opacity:1;fill-rule:nonzero;stroke:none"
         id="path16" /><path
         d="m 559.578,490.227 -163.199,-163.2 v 163.2 l -163.195,-163.2 v 163.2 L 0,257.047 V 93.7813 L 163.203,256.988 V 93.7813 L 326.406,256.988 V 93.7813 L 559.578,326.965 v 0.004 163.258"
         style="fill:#18ae50;fill-opacity:1;fill-rule:nonzero;stroke:none"
         id="path18" /></g></g></svg>
